<svg enable-background="new 0 0 1000 258.563" height="258.56265" viewBox="0 0 258.51382 258.56266" width="258.51382" xmlns="http://www.w3.org/2000/svg"><path d="m258.50283 128.07665c-.019-2.635-2.205-4.878-4.869-4.878-.383 0-.759.074-1.134.167-42.904 8.871-87.648 12.425-133.462 9.905-14.116-.783-28.000002 0-41.670002 1.051-1.043.067-2.065.192-3.09.332-10.956 1.501-21.432 6.362-29.55 14.292-7.209 7.055-12.312 16.145-14.484 26.018-2.611 11.873-.768 24.139 4.269 35.12 4.87 10.663 12.69 19.937 22.396 26.6 10.54 7.063 22.118 12.572 34.276 16.276 7.667 2.301 14.495002 3.727 22.559002 4.727.108-3.051 4.711-7.813 4.874-10.105.162-2.294-1.572-4.313-3.857-4.461-12.562.476-21.776002.167-33.566002-4.22-12.099-4.527-23.047-11.998-31.694-21.563-4.16-4.611-7.608-9.664-9.832-15.468-2.184-5.82-3.113-12.048-2.763-18.228 1.175-20.771 17.34-38.354 37.968-41.316 11.407-1.633 23.219 1.301 32.524002 8.104 4.857 3.536 9.009 8.099 12.048 13.251 3.449 5.861 6.333 12.065 8.343 18.568 4.173 13.55 4.549 28.367 2.765 42.351-.776 5.929-2.022 11.809-3.724 17.577-.954 3.259-2.117 6.503-3.398 9.655-.229.584-.366 1.2-.366 1.87 0 2.65 2.117 4.768 4.723 4.845.326 0 .888.016 1.222.016 31.744 0 60.798-11.424 83.315-30.345.017-.008.058-.058.075-.066.926-.892 1.456-2.077 1.456-3.411 0-.99-.342-1.858-.795-2.649-8.443-14.652-26.822-35.687-26.822-35.687s20.801 18.617 35.717 26.773c.806.424 1.686.773 2.683.773 1.333 0 2.547-.516 3.413-1.409.055-.032.105-.084.154-.157 18.924-22.479 30.307-51.479 30.307-83.125-.001-.391-.011-.783-.011-1.183" fill="#187fc3"/><path d="m24.564828 187.28565c-5.112-11.356-8.271-23.62-9.038-36.004-.088-1.685-.064-3.936-.072-5.611 0-2.319-1.868-4.202-4.189-4.202-2.3219999 0-7.2499999 4.235-10.69799992 4.235 3.52300002 27.349 15.90399992 53.181 35.02099992 73.061 9.352 9.748 20.937 17.293 34.096 20.861 11.298 3.068 23.3 1.675 33.736002-3.585 4.995-2.535 9.589-5.928 13.396-10.058 4.064-4.368 7.187-9.695 10.083-14.884 3.04-5.501 5.679-11.196 8.068-17.024 2.518-6.17 4.619-12.533 7.404-18.644 10.535-22.981 25.374-44.002 45.423-59.646 9.801-7.646 20.5-14.064 31.864-19.117999 5.782-2.569 11.708-4.763 17.77-6.571 2.885-.859 5.832-1.66 8.768-2.359 2.629-.817 4.089-3.603 3.202-6.171-7.342-18.585-19.141-35.313-34.024-48.612-.101-.099-.188-.191-.288-.284-.855-.741-1.968-1.226-3.202-1.226-1.335 0-2.452.793-3.469 1.509-23.897 16.569-41.496 44.242-41.496 44.242s9.314-23.655 29.184-52.83c.505-.7.725-1.585.725-2.501 0-1.66-.813-3.101-2.068-3.97-.145-.1-.303-.199-.466-.284-12.295-7.146-25.72-12.3320003-39.715-15.1080003-10.194-2.03499998-20.638-2.83499998-31.019-2.37599998-.025-.017-.067-.017-.088-.017-.058 0-.099.017-.158.017-2.598.074-4.586 2.21699998-4.69 4.81899998-1.322 33.9700003 5.336 92.3720003 5.336 92.3720003s-11.864-57.55-23.555-89.4860003c-.701002-1.936-2.434002-3.395-4.594002-3.395-.334 0-.668.034-.963.083-.037.026-.071.049-.113.049-.838.209-1.671.451-2.51.693-19.537 5.7950003-37.605 16.2430003-52.377 30.2430003-2.542 2.41-4.969 4.944-7.333 7.579-.05.049-.121.125-.164.15-.8.892-1.305 2.027-1.305 3.311 0 1.316.472 2.685 1.451 3.435 25.524 19.379 44.348 41.451 44.348 41.451s-24.172-17.827-52.902-29.15c-.821-.309-1.597-.726-2.518-.726-1.676 0-3.135.851-4.015 2.135-.017.018-.026.042-.042.066-4.148 7.088-7.6839999 14.525-10.4269999 22.248-3.49 9.831-5.77 20.111999-6.80400002 30.507999-.263 2.652-.434 5.371 2.28800002 6.855 1.076.599 2.272.692 3.458.458 1.759-.384 3.526-.716 5.3029999-1.001 6.866-1.116 13.799-1.617 20.716-1.559 13.892.134 27.724 2.66 40.712 7.495 11.985 4.494 22.942 11.507 31.246002 21.346 15.627 18.562 24.003 50.438 5.971 70.218-8.267 9.071-20.441002 13.492-32.628002 12.407-6.266-.594-11.815-2.776-17.289-5.736-4.995-2.709-9.736-5.828-13.975-9.59-9.255-8.237-16.334-18.902-21.375-30.118" fill="#f9be00"/></svg>